<?xml version="1.0" encoding="utf-8"?>
<!-- Generator: Adobe Illustrator 27.9.6, SVG Export Plug-In . SVG Version: 9.03 Build 54986)  -->
<svg version="1.1" id="Ebene_1" xmlns="http://www.w3.org/2000/svg" xmlns:xlink="http://www.w3.org/1999/xlink" x="0px" y="0px"
	 width="500px" height="266.7px" viewBox="0 0 500 266.7" style="enable-background:new 0 0 500 266.7;" xml:space="preserve">
<style type="text/css">
	.st0{fill:#D47479;}
</style>
<g>
	<path class="st0" d="M421.8,149.9L421.8,149.9l-64.8,0v72.5h64.6v-16.1h-48.5V166h48.5c11.1,0,20.1,9,20.1,20.1
		c0,11.1-9,20.1-20.1,20.1v16.1c20,0,36.2-16.3,36.2-36.2C457.9,166.3,441.7,150,421.8,149.9"/>
	<path class="st0" d="M145.3,203.3c5.9-0.4,11.3-1.4,16.1-2.8v-136c-4.9-1.5-10.3-2.5-16.1-3V203.3z"/>
	<path class="st0" d="M337.7,244.5V71.7l-81.3,90.6l-82-90.8v123.4c5.7-3.2,10.8-7.2,15.2-11.9l0.9-0.9v-68.7l65.9,73l65.1-72.6
		v146.8h100.1v-16.1H337.7z"/>
	<path class="st0" d="M453.7,118.9c18.2-10.9,30.4-30.8,30.4-53.5c0-34.3-27.9-62.3-62.2-62.4v0h-44.7h-15.7h-2.7L246.5,128.1
		l10.8,12l108.5-121h55.8c25.5,0,46.3,20.8,46.3,46.3c0,25.5-20.8,46.3-46.3,46.3h-48.5V55.3h48.5c5.5,0,10.1,4.5,10.1,10.1
		c0,5.5-4.5,10.1-10.1,10.1h-13.6l-14.4,16.1h28.2v0c14.4-0.1,26-11.8,26-26.2c0-14.4-11.6-26.1-26-26.2v0h-54.9l-9.9,11v77.6h64.8
		v0C454,127.9,480,154,480,186.2c0,32.2-26.2,58.4-58.4,58.4v16.1c41.1,0,74.5-33.4,74.5-74.5C496.1,156.6,478.8,130.9,453.7,118.9"
		/>
	<path class="st0" d="M222.3,215c-10.5,10.1-22.9,18.1-36.7,23.9c-13.8,5.8-29.9,8.7-47.9,8.7c-16.6,0-32-3-45.9-8.9
		c-13.9-5.9-26.3-14.2-36.7-24.6c-10.4-10.4-18.5-22.7-24.2-36.6c-5.7-13.9-8.6-29.2-8.6-45.3c0-16.2,2.9-31.4,8.6-45.3
		c5.7-13.9,13.8-26.1,24-36.4C65.2,40.1,77.5,31.9,91.4,26c13.9-5.9,29.2-8.9,45.5-8.9c18.5,0,34.5,2.9,47.8,8.6
		c13.4,5.8,25.4,13.8,35.8,23.6L231.9,38c-11.8-11.3-25.4-20.3-40.8-27c-15.3-6.6-33.4-10-54.2-10c-18.6,0-35.9,3.4-51.8,10.1
		c-15.9,6.8-29.8,16.1-41.7,27.9c-11.8,11.8-21,25.7-27.5,41.7c-6.5,15.9-9.8,33.1-9.8,51.4c0,18.4,3.3,35.5,9.8,51.4
		c6.5,15.9,15.8,29.9,27.7,41.8c12,12,25.9,21.3,41.8,28.1c15.9,6.8,33.3,10.1,52.2,10.1c20.3,0,38.3-3.3,54.2-10
		c15.8-6.6,29.8-15.8,41.8-27.4L222.3,215z"/>
	<path class="st0" d="M178.8,38.8c-12.1-5.2-26.2-7.8-41.8-7.8c-13.6,0-26.5,2.4-38.1,7.2c-11.9,4.8-22.3,12-31.1,21.2
		C58.9,68.5,52.2,79.5,47.6,92c-4.5,12.2-6.8,25.7-6.8,40.2c0,14.7,2.3,28.3,6.8,40.5c4.6,12.6,11.4,23.6,20.2,32.6
		c8.7,9,19.1,16.1,30.9,21c11.7,4.9,24.7,7.4,38.7,7.4c16.4,0,30.9-2.7,43.1-8.1c11.9-5.3,22.4-12.5,31-21.6L200,192.7
		c-7.2,7.7-15.9,13.8-26.1,18.3c-10.1,4.5-22.3,6.7-36.6,6.7c-11.8,0-22.6-2-32.4-6.2c-9.8-4.1-18.3-9.9-25.5-17.4
		c-7.2-7.5-12.8-16.5-16.7-27c-3.9-10.5-5.8-22.2-5.8-35c0-12.6,1.9-24.1,5.8-34.6c3.9-10.5,9.4-19.6,16.7-27.2
		C86.6,62.8,95.1,57,104.9,53c9.8-4,20.5-6,32.1-6c13.5,0,25.4,2.2,35.5,6.5c10.1,4.3,18.7,10.4,25.7,18.1l11.4-11.4
		C201.1,51.1,190.8,43.9,178.8,38.8"/>
</g>
</svg>
